<?xml version="1.0" encoding="UTF-8"?> <!-- Generator: Adobe Illustrator 21.0.2, SVG Export Plug-In . SVG Version: 6.00 Build 0) --> <svg xmlns="http://www.w3.org/2000/svg" xmlns:xlink="http://www.w3.org/1999/xlink" id="Слой_1" x="0px" y="0px" viewBox="0 0 386.2 36.6" style="enable-background:new 0 0 386.2 36.6;" xml:space="preserve"> <style type="text/css"> .st0{fill:#B00102;} .st1{fill:#202246;} </style> <title>logo</title> <g id="Слой_2"> <g id="Слой_1-2"> <path class="st0" d="M20.1,36.6c-5.3,0.2-10.4-1.6-14.4-5.1C1.9,28.2-0.2,23.3,0,18.3c-0.2-5,1.9-9.8,5.7-13.2 C9.4,1.7,14.2,0,20,0c3.1-0.1,6.2,0.5,9,1.9v10.2c-2.6-1.5-5.6-2.3-8.6-2.3c-2.4-0.1-4.8,0.8-6.6,2.5c-1.7,1.5-2.7,3.8-2.6,6.1 c-0.1,2.4,0.9,4.6,2.7,6.2c1.9,1.6,4.4,2.5,6.9,2.4c3.1,0.1,6.1-0.8,8.7-2.5v10.4C26.6,36.1,23.4,36.7,20.1,36.6z"></path> <path class="st0" d="M44.9,35.9H34.1V0.7h10.8v11.9h10.8V0.7h10.8v35.2H55.7V22H44.9V35.9z"></path> <path class="st0" d="M82.8,35.9H72V0.7h10.8V35.9z"></path> <path class="st0" d="M106.9,35.9H88.3V0.7h17.8c2.8-0.1,5.7,0.7,8,2.3c2.1,1.5,3.3,4.1,3.2,6.7c0.1,1.5-0.4,3.1-1.3,4.3 c-0.8,1-1.7,1.8-2.8,2.4c1.8,0.5,3.4,1.5,4.5,3c1.5,1.7,2.3,4,2.2,6.3c0.1,2.9-1.3,5.6-3.6,7.4C113.6,35.1,110.3,36.1,106.9,35.9z M99.1,9.1v4.7h5.5c0.7,0,1.3-0.2,1.8-0.6c0.5-0.4,0.7-1,0.7-1.6c0-0.7-0.2-1.3-0.7-1.8c-0.5-0.5-1.2-0.7-1.8-0.7L99.1,9.1z M99.1,21.4v5.8h5.7c0.9,0,1.7-0.2,2.3-0.8c0.6-0.5,0.9-1.3,0.9-2.1c0-0.8-0.3-1.6-0.9-2.1c-0.6-0.6-1.5-0.9-2.3-0.8L99.1,21.4z"></path> <path class="st0" d="M132.1,35.9H121l14.4-35.4h10.3l14.5,35.4h-11.6l-2.5-6.6h-11.5L132.1,35.9z M140.4,12.9l-2.6,8.3h5.2 L140.4,12.9z"></path> <path class="st0" d="M167.5,24.3c1.6,0,3.2,0.6,4.3,1.8c1.2,1.1,1.9,2.7,1.8,4.3c0,1.6-0.6,3.2-1.8,4.4c-1.1,1.2-2.7,1.8-4.3,1.8 c-1.6,0-3.2-0.6-4.4-1.8c-1.2-1.1-1.8-2.7-1.8-4.4c0-1.6,0.6-3.2,1.8-4.3C164.3,24.9,165.9,24.3,167.5,24.3z"></path> <path class="st1" d="M201.2,22.1l10.5,13.8h-12.6l-9.4-12.6h-1.5v12.6h-10.8V0.7h17c4,0,7.2,1.1,9.6,3.2c2.4,2,3.7,5,3.6,8.1 c0,2.1-0.6,4.2-1.7,6C204.7,19.8,203.1,21.2,201.2,22.1z M188.2,15.4h4.9c0.9,0,1.7-0.2,2.4-0.8c0.6-0.5,1-1.3,0.9-2.1 c0-0.8-0.3-1.6-0.9-2.1c-0.7-0.5-1.6-0.8-2.4-0.8h-4.9V15.4z"></path> <path class="st1" d="M211.9,18.3c-0.1-4.9,1.8-9.5,5.3-12.9c7.6-7.2,19.4-7.2,27,0c3.5,3.4,5.4,8.1,5.3,12.9 c0.1,4.9-1.8,9.6-5.3,13c-7.6,7.1-19.4,7.1-27,0C213.7,27.8,211.8,23.2,211.9,18.3z M225.1,24.4c3,3.1,7.9,3.2,11,0.2 c0.1-0.1,0.1-0.1,0.2-0.2c1.5-1.7,2.3-3.8,2.2-6.1c0.1-2.2-0.7-4.4-2.2-6c-2.9-3.1-7.7-3.2-10.8-0.3c-0.1,0.1-0.2,0.2-0.3,0.3 c-1.5,1.6-2.3,3.8-2.2,6C222.8,20.5,223.6,22.7,225.1,24.4L225.1,24.4z"></path> <path class="st1" d="M273,36.6c-5.3,0.2-10.4-1.6-14.4-5.1c-3.8-3.3-5.9-8.2-5.7-13.2c-0.2-5,1.9-9.8,5.7-13.2 c3.8-3.4,8.6-5.1,14.4-5.1c3.1-0.1,6.1,0.5,8.9,1.9v10.2c-2.6-1.5-5.6-2.3-8.6-2.3c-2.4-0.1-4.8,0.8-6.6,2.5 c-1.7,1.6-2.7,3.8-2.6,6.1c-0.1,2.4,0.9,4.6,2.7,6.2c1.9,1.6,4.4,2.5,6.9,2.4c3.1,0.1,6.1-0.8,8.7-2.5v10.4 C279.4,36.1,276.2,36.7,273,36.6z"></path> <path class="st1" d="M297.8,35.9H287V0.7h10.8v13.1l9.9-13.1h12.7L308,17l15,18.8h-13.3l-11.9-15.1V35.9z"></path> <path class="st1" d="M352.8,35.9h-27.9V0.7h27.6V10h-16.8v3.1h13.2v8.5h-13.2v4.9h17.1V35.9z"></path> <path class="st1" d="M355.3,10V0.7h30.9V10h-10.1v25.9h-10.8V10H355.3z"></path> </g> </g> </svg> 